# Blender v2.79 (sub 0) OBJ File: 'tower.blend'
# www.blender.org
mtllib tower.mtl
o tower_mesh
v 1.153154 0.000000 -1.153154
v 1.153154 -0.000000 1.153154
v -1.153154 -0.000000 1.153154
v -1.153154 0.000000 -1.153154
v -1.028331 1.070182 1.028331
v 1.028331 1.070182 1.028331
v 1.028331 1.070182 -1.028331
v -1.028331 1.070182 -1.028331
v -0.941177 2.560001 0.941177
v 0.941177 2.560001 0.941177
v 1.280001 2.880001 1.280001
v -1.280001 2.880001 1.280001
v 0.941177 2.560001 -0.941176
v 1.280001 2.880002 -1.280000
v -0.941177 2.560001 -0.941176
v -1.280001 2.880002 -1.280000
v 1.280001 3.232043 1.280001
v -1.280001 3.232043 1.280001
v 1.280001 3.232043 -1.280000
v -1.280001 3.232043 -1.280000
v -1.256075 3.260410 1.256076
v 1.256075 3.260410 1.256076
v 1.256075 4.009310 1.256076
v -1.256075 4.009310 1.256076
v 1.256075 3.260411 -1.256075
v 1.256075 4.009310 -1.256075
v -1.256075 3.260411 -1.256075
v -1.256075 4.009310 -1.256075
v 1.333334 3.060002 -1.333333
v 1.333334 3.060002 -0.920000
v 0.920000 3.060002 -0.920000
v 0.920000 3.060002 -1.333333
v 1.340001 3.540002 -1.340000
v 0.920000 3.540002 -1.340000
v 0.920000 3.540002 -0.920000
v 1.340001 3.540002 -0.920000
v 1.391747 3.480572 -0.920000
v 1.391747 3.480572 -1.391746
v 0.920000 3.480572 -1.391746
v -0.920000 3.060001 0.920001
v -0.920000 3.060001 1.333334
v -1.333334 3.060001 1.333334
v -1.333334 3.060001 0.920001
v -0.920000 3.540001 0.920001
v -1.340001 3.540001 0.920001
v -1.340001 3.540001 1.340001
v -0.920000 3.540001 1.340001
v -0.920000 3.480572 1.391747
v -1.391747 3.480572 1.391747
v -1.391747 3.480572 0.920001
v 1.333334 3.060001 0.920001
v 1.333334 3.060001 1.333334
v 0.920000 3.060001 1.333334
v 0.920000 3.060001 0.920001
v 1.340001 3.540001 0.920001
v 0.920000 3.540001 0.920001
v 0.920000 3.540001 1.340001
v 1.340001 3.540001 1.340001
v 1.391747 3.480572 1.391747
v 0.920000 3.480572 1.391747
v 1.391747 3.480572 0.920001
v -0.920000 3.060002 -1.333333
v -0.920000 3.060002 -0.920000
v -1.333334 3.060002 -0.920000
v -1.333334 3.060002 -1.333333
v -0.920000 3.514277 -1.306006
v -1.336425 3.514277 -1.306006
v -1.339998 3.540002 -0.920000
v -0.920000 3.540002 -0.920000
v -1.391728 3.480438 -0.920000
v -0.920000 3.450443 -1.361548
v -1.387601 3.450727 -1.361569
v -0.920000 3.060001 0.146667
v -0.920000 3.060001 0.626667
v -1.333334 3.060001 0.626667
v -1.333334 3.060001 0.146667
v -0.920000 3.540002 0.146667
v -1.340001 3.540002 0.146667
v -1.340001 3.540002 0.626667
v -0.920000 3.540002 0.626667
v -1.391747 3.480572 0.626667
v -1.391747 3.480572 0.146667
v -0.920000 3.060001 -0.626667
v -0.920000 3.060001 -0.146666
v -1.333334 3.060001 -0.146666
v -1.333334 3.060001 -0.626667
v -0.920000 3.540002 -0.626666
v -1.340001 3.540002 -0.626666
v -1.340001 3.540002 -0.146666
v -0.920000 3.540002 -0.146666
v -1.391747 3.480572 -0.146666
v -1.391747 3.480572 -0.626666
v -0.146667 3.060002 -1.333333
v -0.146667 3.060002 -0.920000
v -0.626667 3.060002 -0.920000
v -0.626667 3.060002 -1.333333
v -0.146667 3.540002 -1.340000
v -0.626667 3.540002 -1.340000
v -0.626667 3.540002 -0.920000
v -0.146667 3.540002 -0.920000
v -0.146667 3.480572 -1.391746
v -0.626667 3.480572 -1.391746
v 0.626667 3.060002 -1.333333
v 0.626667 3.060002 -0.920000
v 0.146667 3.060002 -0.920000
v 0.146667 3.060002 -1.333333
v 0.626667 3.540002 -1.340000
v 0.146667 3.540002 -1.340000
v 0.146667 3.540002 -0.920000
v 0.626667 3.540002 -0.920000
v 0.626667 3.480572 -1.391746
v 0.146667 3.480572 -1.391746
v -0.146667 3.060001 0.920001
v -0.146667 3.060001 1.333334
v -0.626667 3.060001 1.333334
v -0.626667 3.060001 0.920001
v -0.146667 3.540001 0.920001
v -0.626667 3.540001 0.920001
v -0.626667 3.540001 1.340001
v -0.146667 3.540001 1.340001
v -0.146667 3.480572 1.391747
v -0.626667 3.480572 1.391747
v 0.626667 3.060001 0.920001
v 0.626667 3.060001 1.333334
v 0.146667 3.060001 1.333334
v 0.146667 3.060001 0.920001
v 0.626667 3.540001 0.920001
v 0.146667 3.540001 0.920001
v 0.146667 3.540001 1.340001
v 0.626667 3.540001 1.340001
v 0.626667 3.480572 1.391747
v 0.146667 3.480572 1.391747
v 1.333334 3.060001 0.146667
v 1.333334 3.060001 0.626667
v 0.920000 3.060001 0.626667
v 0.920000 3.060001 0.146667
v 1.340001 3.540002 0.146667
v 0.920000 3.540002 0.146667
v 0.920000 3.540002 0.626667
v 1.340001 3.540002 0.626667
v 1.391747 3.480572 0.626667
v 1.391747 3.480572 0.146667
v 1.333334 3.060001 -0.626667
v 1.333334 3.060001 -0.146666
v 0.920000 3.060001 -0.146666
v 0.920000 3.060001 -0.626667
v 1.340001 3.540002 -0.626666
v 0.920000 3.540002 -0.626666
v 0.920000 3.540002 -0.146666
v 1.340001 3.540002 -0.146666
v 1.391747 3.480572 -0.146666
v 1.391747 3.480572 -0.626666
v 1.395895 3.879018 -1.395894
v -1.395894 3.879018 -1.395894
v 0.000000 5.247541 0.000001
v -1.395894 3.879018 1.395895
v 1.395895 3.879018 1.395895
vt 0.000000 0.000000
vt 0.000000 0.000000
vt 0.000000 0.000000
vt 0.000000 0.000000
vt 0.500917 0.234569
vt 0.474622 0.014198
vt 0.960465 0.014198
vt 0.934170 0.234569
vt 0.960465 0.014198
vt 0.934170 0.234569
vt 0.500917 0.234569
vt 0.474622 0.014198
vt 0.500917 0.234480
vt 0.474622 0.014168
vt 0.960465 0.014169
vt 0.934170 0.234480
vt 0.500917 0.234569
vt 0.474622 0.014198
vt 0.960465 0.014198
vt 0.934170 0.234569
vt 0.519277 0.540839
vt 0.915811 0.540839
vt 0.987187 0.604708
vt 0.447901 0.604708
vt 0.519277 0.540839
vt 0.915811 0.540839
vt 0.987187 0.604708
vt 0.447901 0.604708
vt 0.519277 0.540839
vt 0.915811 0.540839
vt 0.987187 0.604626
vt 0.447901 0.604626
vt 0.519277 0.540839
vt 0.915811 0.540839
vt 0.987187 0.604708
vt 0.447901 0.604708
vt 0.987187 0.676956
vt 0.447901 0.676956
vt 0.987187 0.676956
vt 0.447901 0.676956
vt 0.987187 0.676938
vt 0.447901 0.676938
vt 0.987187 0.676956
vt 0.447901 0.676956
vt 0.454948 0.697654
vt 0.983421 0.697654
vt 0.983421 0.846940
vt 0.454948 0.846940
vt 0.454948 0.697654
vt 0.983421 0.697654
vt 0.983421 0.846940
vt 0.454948 0.846940
vt 0.454948 0.697654
vt 0.983421 0.697654
vt 0.983421 0.846940
vt 0.454948 0.846940
vt 0.454948 0.697654
vt 0.983421 0.697654
vt 0.983421 0.846940
vt 0.454948 0.846940
vt 0.982147 0.689163
vt 0.452941 0.689163
vt 0.982147 0.689163
vt 0.452941 0.689163
vt 0.982147 0.689112
vt 0.452941 0.689112
vt 0.982147 0.689163
vt 0.452941 0.689163
vt 0.115366 0.859635
vt 0.241273 0.859814
vt 0.241273 0.985830
vt 0.115252 0.985837
vt 0.306511 0.328040
vt 0.433652 0.328040
vt 0.433653 0.203167
vt 0.306242 0.203156
vt 0.634430 0.998147
vt 0.517933 0.850990
vt 0.632565 0.850995
vt 0.648803 0.975125
vt 0.794501 0.975387
vt 0.924950 0.975417
vt 0.925125 0.851559
vt 0.810142 0.851559
vt 0.924961 0.975414
vt 0.794653 0.975339
vt 0.810159 0.851554
vt 0.925148 0.851552
vt 0.517932 0.998122
vt 0.648804 0.975057
vt 0.632566 0.850914
vt 0.517933 0.850920
vt 0.241223 0.985912
vt 0.115211 0.985905
vt 0.115098 0.860074
vt 0.241223 0.859895
vt 0.433650 0.203224
vt 0.306238 0.203236
vt 0.306511 0.328043
vt 0.433652 0.328042
vt 0.924960 0.975417
vt 0.794653 0.975387
vt 0.810159 0.851559
vt 0.925147 0.851559
vt 0.517930 0.998122
vt 0.648796 0.975057
vt 0.632556 0.850914
vt 0.517929 0.850920
vt 0.634381 0.998147
vt 0.517930 0.850990
vt 0.632557 0.850995
vt 0.648797 0.975125
vt 0.794499 0.975397
vt 0.924953 0.975417
vt 0.925133 0.851566
vt 0.810143 0.851565
vt 0.241223 0.859814
vt 0.115098 0.859635
vt 0.115211 0.985837
vt 0.241223 0.985830
vt 0.306242 0.203236
vt 0.433653 0.203224
vt 0.433652 0.328042
vt 0.306511 0.328043
vt 0.794501 0.975387
vt 0.924950 0.975417
vt 0.925125 0.851559
vt 0.810142 0.851559
vt 0.924960 0.975417
vt 0.794653 0.975387
vt 0.810159 0.851559
vt 0.925147 0.851559
vt 0.517932 0.998173
vt 0.648803 0.975125
vt 0.632565 0.850995
vt 0.517933 0.850990
vt 0.634377 0.998143
vt 0.517929 0.850920
vt 0.632556 0.850914
vt 0.648796 0.975057
vt 0.115252 0.985905
vt 0.241273 0.985912
vt 0.241273 0.859895
vt 0.115366 0.860074
vt 0.433652 0.328037
vt 0.306511 0.328035
vt 0.306238 0.203156
vt 0.433650 0.203167
vt 0.517930 0.998173
vt 0.648797 0.975118
vt 0.632557 0.850995
vt 0.517930 0.850990
vt 0.634433 0.998142
vt 0.517933 0.850920
vt 0.632566 0.850914
vt 0.648805 0.974807
vt 0.794451 0.975376
vt 0.924944 0.975416
vt 0.925120 0.851552
vt 0.810137 0.851554
vt 0.924943 0.975414
vt 0.794554 0.975315
vt 0.925111 0.851560
vt 0.409205 0.985236
vt 0.262866 0.985236
vt 0.262924 0.859229
vt 0.409208 0.859220
vt 0.435227 0.036608
vt 0.307816 0.036608
vt 0.307819 0.182201
vt 0.435230 0.182203
vt 0.517930 0.998173
vt 0.648797 0.975125
vt 0.632557 0.850995
vt 0.517930 0.850990
vt 0.634381 0.998147
vt 0.517930 0.850990
vt 0.632557 0.850995
vt 0.648797 0.975125
vt 0.654777 0.975142
vt 0.788304 0.975138
vt 0.788302 0.851395
vt 0.654785 0.851425
vt 0.262878 0.985236
vt 0.409216 0.985236
vt 0.409219 0.859220
vt 0.262926 0.859229
vt 0.435230 0.182168
vt 0.307819 0.182169
vt 0.307816 0.036538
vt 0.435227 0.036538
vt 0.517930 0.998173
vt 0.648797 0.975125
vt 0.632557 0.850995
vt 0.517930 0.850990
vt 0.634381 0.998147
vt 0.517930 0.850990
vt 0.632557 0.850995
vt 0.648797 0.975125
vt 0.788296 0.975137
vt 0.654721 0.975130
vt 0.654689 0.851406
vt 0.788299 0.851395
vt 0.262948 0.859235
vt 0.262993 0.985273
vt 0.409338 0.985274
vt 0.409335 0.859256
vt 0.307840 0.182182
vt 0.307861 0.036567
vt 0.435273 0.036567
vt 0.435253 0.182182
vt 0.634434 0.998143
vt 0.517933 0.850920
vt 0.632566 0.850914
vt 0.648804 0.975057
vt 0.654734 0.975126
vt 0.788295 0.975136
vt 0.788299 0.851393
vt 0.654713 0.851369
vt 0.517932 0.998122
vt 0.648804 0.975057
vt 0.632566 0.850914
vt 0.517933 0.850920
vt 0.409353 0.859256
vt 0.409357 0.985274
vt 0.263012 0.985273
vt 0.262951 0.859235
vt 0.307861 0.036571
vt 0.307840 0.182184
vt 0.435253 0.182184
vt 0.435273 0.036571
vt 0.634434 0.998143
vt 0.517933 0.850920
vt 0.632566 0.850914
vt 0.648804 0.975057
vt 0.788306 0.975136
vt 0.654809 0.975126
vt 0.654835 0.851369
vt 0.788302 0.851393
vt 0.517932 0.998122
vt 0.648804 0.975057
vt 0.632566 0.850914
vt 0.517933 0.850920
vt 0.262993 0.985261
vt 0.262948 0.859233
vt 0.409335 0.859245
vt 0.409338 0.985262
vt 0.435218 0.182182
vt 0.435203 0.036567
vt 0.307791 0.036567
vt 0.307808 0.182182
vt 0.788305 0.975139
vt 0.654805 0.975145
vt 0.654828 0.851396
vt 0.788302 0.851394
vt 0.517930 0.998122
vt 0.648796 0.975057
vt 0.632556 0.850914
vt 0.517929 0.850920
vt 0.634377 0.998143
vt 0.517929 0.850920
vt 0.632556 0.850914
vt 0.648796 0.975057
vt 0.409357 0.985262
vt 0.409353 0.859245
vt 0.262951 0.859233
vt 0.263012 0.985261
vt 0.435203 0.036571
vt 0.435218 0.182184
vt 0.307808 0.182184
vt 0.307791 0.036571
vt 0.654746 0.975145
vt 0.788296 0.975139
vt 0.788299 0.851394
vt 0.654732 0.851396
vt 0.517930 0.998122
vt 0.648796 0.975057
vt 0.632556 0.850914
vt 0.517929 0.850920
vt 0.634377 0.998143
vt 0.517929 0.850920
vt 0.632556 0.850914
vt 0.648796 0.975057
vt 0.409208 0.859202
vt 0.262924 0.859226
vt 0.262866 0.985218
vt 0.409205 0.985217
vt 0.307820 0.036608
vt 0.435231 0.036608
vt 0.435232 0.182203
vt 0.307821 0.182201
vt 0.634430 0.998147
vt 0.517933 0.850990
vt 0.632565 0.850995
vt 0.648803 0.975125
vt 0.788305 0.975139
vt 0.654805 0.975145
vt 0.654828 0.851396
vt 0.788302 0.851394
vt 0.517932 0.998173
vt 0.648803 0.975125
vt 0.632565 0.850995
vt 0.517933 0.850990
vt 0.262926 0.859226
vt 0.409219 0.859202
vt 0.409216 0.985217
vt 0.262878 0.985218
vt 0.307821 0.182169
vt 0.435232 0.182168
vt 0.435231 0.036538
vt 0.307820 0.036538
vt 0.634430 0.998147
vt 0.517933 0.850990
vt 0.632565 0.850995
vt 0.648803 0.975125
vt 0.654746 0.975145
vt 0.788296 0.975139
vt 0.788299 0.851394
vt 0.654732 0.851396
vt 0.517932 0.998173
vt 0.648803 0.975125
vt 0.632565 0.850995
vt 0.517933 0.850990
vt 0.809024 0.998735
vt 0.924949 0.998642
vt 0.924963 0.998638
vt 0.809131 0.998704
vt 0.924962 0.998642
vt 0.809130 0.998735
vt 0.809029 0.998734
vt 0.924954 0.998641
vt 0.809024 0.998735
vt 0.924949 0.998642
vt 0.924962 0.998642
vt 0.809130 0.998735
vt 0.654771 0.998144
vt 0.788304 0.998143
vt 0.788295 0.998142
vt 0.654754 0.998140
vt 0.654758 0.998141
vt 0.788295 0.998142
vt 0.788307 0.998142
vt 0.654780 0.998141
vt 0.788305 0.998145
vt 0.654779 0.998146
vt 0.654761 0.998146
vt 0.788296 0.998145
vt 0.788305 0.998145
vt 0.654779 0.998146
vt 0.654761 0.998146
vt 0.788296 0.998145
vt 0.924941 0.998637
vt 0.809088 0.998708
vt 0.808985 0.998771
vt 0.924942 0.998646
vt 0.016326 0.907086
vt 0.016326 0.141896
vt 0.497578 0.524491
vt 0.016326 0.907086
vt 0.016326 0.141896
vt 0.016326 0.907086
vt 0.016326 0.141896
vt 0.016326 0.907086
vt 0.016326 0.141896
vt 0.517932 0.998173
vt 0.634434 0.998143
vt 0.634377 0.998143
vt 0.517930 0.998173
vt 0.634430 0.998147
vt 0.517930 0.998122
vt 0.634381 0.998147
vt 0.517932 0.998122
vt 0.634381 0.998147
vt 0.517930 0.998173
vt 0.634381 0.998147
vt 0.517930 0.998173
vt 0.517932 0.998122
vt 0.634434 0.998143
vt 0.517932 0.998122
vt 0.634434 0.998143
vt 0.634377 0.998143
vt 0.517930 0.998122
vt 0.634377 0.998143
vt 0.517930 0.998122
vt 0.517932 0.998173
vt 0.634430 0.998147
vt 0.517932 0.998173
vt 0.634430 0.998147
vn 0.6054 -0.5166 -0.6054
vn 0.6054 -0.5166 0.6054
vn -0.6054 -0.5166 0.6054
vn -0.6054 -0.5166 -0.6054
vn -0.7016 0.1250 0.7016
vn 0.7016 0.1250 0.7016
vn 0.7016 0.1250 -0.7016
vn -0.7016 0.1250 -0.7016
vn -0.5852 -0.5612 0.5852
vn 0.5852 -0.5612 0.5852
vn 0.6480 -0.4003 0.6480
vn -0.6480 -0.4003 0.6480
vn 0.5852 -0.5612 -0.5852
vn 0.6480 -0.4003 -0.6480
vn -0.5852 -0.5612 -0.5852
vn -0.6480 -0.4003 -0.6480
vn 0.6588 0.3633 0.6588
vn -0.6588 0.3633 0.6588
vn 0.6588 0.3633 -0.6588
vn -0.6588 0.3633 -0.6588
vn -0.6039 0.5201 0.6039
vn 0.6039 0.5201 0.6039
vn 0.7071 0.0000 0.7071
vn -0.7071 0.0000 0.7071
vn 0.6039 0.5201 -0.6039
vn 0.7071 0.0000 -0.7071
vn -0.6039 0.5201 -0.6039
vn -0.7071 0.0000 -0.7071
vn 0.5379 -0.6490 -0.5379
vn 0.5326 -0.6117 0.5849
vn -0.5773 -0.5773 0.5773
vn -0.5849 -0.6117 -0.5326
vn 0.3272 0.8865 -0.3272
vn -0.6247 0.7107 -0.3235
vn -0.5773 0.5773 0.5773
vn 0.3235 0.7107 0.6247
vn 0.7485 0.2227 0.6247
vn 0.6781 0.2833 -0.6781
vn -0.6247 0.2227 -0.7485
vn 0.5773 -0.5773 -0.5773
vn 0.5849 -0.6117 0.5326
vn -0.5379 -0.6490 0.5379
vn -0.5326 -0.6117 -0.5849
vn 0.5773 0.5773 -0.5773
vn -0.3235 0.7107 -0.6247
vn -0.3272 0.8865 0.3272
vn 0.6247 0.7107 0.3235
vn 0.6247 0.2227 0.7485
vn -0.6781 0.2833 0.6781
vn -0.7485 0.2227 -0.6247
vn 0.5326 -0.6117 -0.5849
vn 0.5379 -0.6490 0.5379
vn -0.5849 -0.6117 0.5326
vn -0.5773 -0.5773 -0.5773
vn 0.3235 0.7107 -0.6247
vn -0.5773 0.5773 -0.5773
vn -0.6247 0.7107 0.3235
vn 0.3272 0.8865 0.3272
vn 0.6781 0.2833 0.6781
vn -0.6247 0.2227 0.7485
vn 0.7485 0.2227 -0.6247
vn 0.5812 -0.5958 -0.5542
vn 0.5773 -0.5773 0.5773
vn -0.5326 -0.6117 0.5849
vn -0.5352 -0.6317 -0.5607
vn 0.6300 0.6958 -0.3448
vn -0.3304 0.8731 -0.3584
vn -0.3287 0.7291 0.6002
vn 0.5739 0.5980 0.5595
vn -0.7533 0.2363 0.6137
vn 0.6301 0.2460 -0.7364
vn -0.6773 0.2893 -0.6764
vn 0.0000 -0.7071 -0.7071
vn 0.0000 -0.7071 0.7071
vn 0.0000 0.7071 -0.7071
vn -0.3235 0.7107 0.6247
vn 0.0000 0.7071 0.7071
vn -0.7485 0.2227 0.6247
vn 0.5849 -0.6117 -0.5326
vn 0.7071 -0.7071 0.0000
vn -0.7071 -0.7071 0.0000
vn 0.6247 0.7107 -0.3235
vn -0.7071 0.7071 0.0000
vn 0.7071 0.7071 0.0000
vn 0.6247 0.2227 -0.7485
vn 0.4028 0.8218 -0.4028
vn -0.4028 0.8218 -0.4028
vn 0.0000 1.0000 0.0000
vn -0.4028 0.8218 0.4028
vn 0.4028 0.8218 0.4028
usemtl Material
s 1
f 1/1/1 2/2/2 3/3/3 4/4/4
f 5/5/5 3/6/3 2/7/2 6/8/6
f 1/9/1 7/10/7 6/11/6 2/12/2
f 7/13/7 1/14/1 4/15/4 8/16/8
f 8/17/8 4/18/4 3/19/3 5/20/5
f 9/21/9 10/22/10 11/23/11 12/24/12
f 10/25/10 13/26/13 14/27/14 11/28/11
f 13/29/13 15/30/15 16/31/16 14/32/14
f 15/33/15 9/34/9 12/35/12 16/36/16
f 12/24/12 11/23/11 17/37/17 18/38/18
f 11/28/11 14/27/14 19/39/19 17/40/17
f 14/32/14 16/31/16 20/41/20 19/42/19
f 16/36/16 12/35/12 18/43/18 20/44/20
f 21/45/21 22/46/22 23/47/23 24/48/24
f 22/49/22 25/50/25 26/51/26 23/52/23
f 25/53/25 27/54/27 28/55/28 26/56/26
f 27/57/27 21/58/21 24/59/24 28/60/28
f 22/61/22 21/62/21 18/38/18 17/37/17
f 25/63/25 22/64/22 17/40/17 19/39/19
f 27/65/27 25/66/25 19/42/19 20/41/20
f 21/67/21 27/68/27 20/44/20 18/43/18
f 5/5/5 6/8/6 10/22/10 9/21/9
f 6/11/6 7/10/7 13/26/13 10/25/10
f 7/13/7 8/16/8 15/30/15 13/29/13
f 8/17/8 5/20/5 9/34/9 15/33/15
f 29/69/29 30/70/30 31/71/31 32/72/32
f 33/73/33 34/74/34 35/75/35 36/76/36
f 36/77/36 31/78/31 30/79/30 37/80/37
f 38/81/38 37/82/37 30/83/30 29/84/29
f 39/85/39 38/86/38 29/87/29 32/88/32
f 35/89/35 39/90/39 32/91/32 31/92/31
f 40/93/40 41/94/41 42/95/42 43/96/43
f 44/97/44 45/98/45 46/99/46 47/100/47
f 48/101/48 49/102/49 42/103/42 41/104/41
f 44/105/44 48/106/48 41/107/41 40/108/40
f 45/109/45 40/110/40 43/111/43 50/112/50
f 49/113/49 50/114/50 43/115/43 42/116/42
f 51/117/51 52/118/52 53/119/53 54/120/54
f 55/121/55 56/122/56 57/123/57 58/124/58
f 59/125/59 60/126/60 53/127/53 52/128/52
f 61/129/61 59/130/59 52/131/52 51/132/51
f 56/133/56 61/134/61 51/135/51 54/136/54
f 57/137/57 54/138/54 53/139/53 60/140/60
f 62/141/62 63/142/63 64/143/64 65/144/65
f 66/145/66 67/146/67 68/147/68 69/148/69
f 69/149/69 70/150/70 64/151/64 63/152/63
f 66/153/66 63/154/63 62/155/62 71/156/71
f 72/157/72 71/158/71 62/159/62 65/160/65
f 70/161/70 72/162/72 65/160/65 64/163/64
f 73/164/73 74/165/74 75/166/64 76/167/43
f 77/168/75 78/169/45 79/170/76 80/171/77
f 80/172/77 81/173/78 75/174/64 74/175/74
f 78/176/45 73/177/73 76/178/43 82/179/50
f 81/180/78 82/181/50 76/182/43 75/183/64
f 83/184/73 84/185/74 85/186/64 86/187/43
f 87/188/75 88/189/45 89/190/76 90/191/77
f 90/192/77 91/193/78 85/194/64 84/195/74
f 88/196/45 83/197/73 86/198/43 92/199/50
f 91/200/78 92/201/50 86/202/43 85/203/64
f 93/204/79 94/205/80 95/206/81 96/207/32
f 97/208/82 98/209/34 99/210/83 100/211/84
f 97/212/82 94/213/80 93/214/79 101/215/85
f 102/216/39 101/217/85 93/218/79 96/219/32
f 99/220/83 102/221/39 96/222/32 95/223/81
f 103/224/79 104/225/80 105/226/81 106/227/32
f 107/228/82 108/229/34 109/230/83 110/231/84
f 107/232/82 104/233/80 103/234/79 111/235/85
f 112/236/39 111/237/85 103/238/79 106/239/32
f 109/240/83 112/241/39 106/242/32 105/243/81
f 113/244/80 114/245/41 115/246/53 116/247/81
f 117/248/84 118/249/83 119/250/57 120/251/47
f 121/252/48 122/253/60 115/254/53 114/255/41
f 117/256/84 121/257/48 114/258/41 113/259/80
f 119/260/57 116/261/81 115/262/53 122/263/60
f 123/264/80 124/265/41 125/266/53 126/267/81
f 127/268/84 128/269/83 129/270/57 130/271/47
f 131/272/48 132/273/60 125/274/53 124/275/41
f 127/276/84 131/277/48 124/278/41 123/279/80
f 129/280/57 126/281/81 125/282/53 132/283/60
f 133/284/51 134/285/30 135/286/74 136/287/73
f 137/288/55 138/289/75 139/290/77 140/291/36
f 140/292/36 135/293/74 134/294/30 141/295/37
f 142/296/61 141/297/37 134/298/30 133/299/51
f 138/300/75 142/301/61 133/302/51 136/303/73
f 143/304/51 144/305/30 145/306/74 146/307/73
f 147/308/55 148/309/75 149/310/77 150/311/36
f 150/312/36 145/313/74 144/314/30 151/315/37
f 152/316/61 151/317/37 144/318/30 143/319/51
f 148/320/75 152/321/61 143/322/51 146/323/73
f 38/81/38 33/324/33 36/325/36 37/82/37
f 39/85/39 34/326/34 33/327/33 38/86/38
f 48/101/48 47/328/47 46/329/46 49/102/49
f 49/113/49 46/330/46 45/331/45 50/114/50
f 59/125/59 58/332/58 57/333/57 60/126/60
f 61/129/61 55/334/55 58/335/58 59/130/59
f 81/180/78 79/336/76 78/337/45 82/181/50
f 91/200/78 89/338/76 88/339/45 92/201/50
f 102/216/39 98/340/34 97/341/82 101/217/85
f 112/236/39 108/342/34 107/343/82 111/237/85
f 121/252/48 120/344/47 119/345/57 122/253/60
f 131/272/48 130/346/47 129/347/57 132/273/60
f 142/296/61 137/348/55 140/349/36 141/297/37
f 152/316/61 147/350/55 150/351/36 151/317/37
f 70/161/70 68/352/68 67/353/67 72/162/72
f 72/157/72 67/354/67 66/355/66 71/158/71
f 153/356/86 154/357/87 155/358/88
f 154/359/87 156/360/89 155/358/88
f 156/361/89 157/362/90 155/358/88
f 155/358/88 157/363/90 153/364/86
f 31/78/31 36/77/36 35/365/35
f 35/89/35 34/366/34 39/90/39
f 44/105/44 47/367/47 48/106/48
f 40/110/40 45/109/45 44/368/44
f 56/133/56 55/369/55 61/134/61
f 54/138/54 57/137/57 56/370/56
f 69/149/69 68/371/68 70/150/70
f 63/154/63 66/153/66 69/372/69
f 80/172/77 79/373/76 81/173/78
f 73/177/73 78/176/45 77/374/75
f 90/192/77 89/375/76 91/193/78
f 83/197/73 88/196/45 87/376/75
f 94/213/80 97/212/82 100/377/84
f 99/220/83 98/378/34 102/221/39
f 104/233/80 107/232/82 110/379/84
f 109/240/83 108/380/34 112/241/39
f 117/256/84 120/381/47 121/257/48
f 116/261/81 119/260/57 118/382/83
f 127/276/84 130/383/47 131/277/48
f 126/281/81 129/280/57 128/384/83
f 135/293/74 140/292/36 139/385/77
f 138/300/75 137/386/55 142/301/61
f 145/313/74 150/312/36 149/387/77
f 148/320/75 147/388/55 152/321/61
